<mxfile host="app.diagrams.net" agent="Mozilla/5.0 (Windows NT 10.0; Win64; x64; rv:132.0) Gecko/20100101 Firefox/132.0" version="24.8.3">
  <diagram name="Page-1" id="vXNPqVzdnOpb7wpDZmL_">
    <mxGraphModel dx="1687" dy="909" grid="1" gridSize="10" guides="1" tooltips="1" connect="1" arrows="1" fold="1" page="1" pageScale="1" pageWidth="850" pageHeight="1400" math="0" shadow="0">
      <root>
        <mxCell id="0" />
        <mxCell id="1" parent="0" />
        <mxCell id="pbV-4tCyexszOfSKkTTi-9" value="Empleado" style="swimlane;fontStyle=1;align=center;verticalAlign=top;childLayout=stackLayout;horizontal=1;startSize=26;horizontalStack=0;resizeParent=1;resizeParentMax=0;resizeLast=0;collapsible=1;marginBottom=0;whiteSpace=wrap;html=1;" vertex="1" parent="1">
          <mxGeometry x="130" y="330" width="160" height="230" as="geometry">
            <mxRectangle x="190" y="130" width="110" height="30" as="alternateBounds" />
          </mxGeometry>
        </mxCell>
        <mxCell id="pbV-4tCyexszOfSKkTTi-10" value="&lt;div&gt;+ nombre : String&lt;/div&gt;&lt;div&gt;+ apellido : String&lt;/div&gt;&lt;div&gt;+ CUIL : int&lt;/div&gt;&lt;div&gt;+ fechaNacimiento : LocalDate&lt;/div&gt;&lt;div&gt;+ tieneHijos : boolean&lt;/div&gt;&lt;div&gt;+ contratos : List&amp;lt;Contrato&amp;gt;&lt;br&gt;&lt;/div&gt;" style="text;strokeColor=none;fillColor=none;align=left;verticalAlign=top;spacingLeft=4;spacingRight=4;overflow=hidden;rotatable=0;points=[[0,0.5],[1,0.5]];portConstraint=eastwest;whiteSpace=wrap;html=1;" vertex="1" parent="pbV-4tCyexszOfSKkTTi-9">
          <mxGeometry y="26" width="160" height="124" as="geometry" />
        </mxCell>
        <mxCell id="pbV-4tCyexszOfSKkTTi-11" value="" style="line;strokeWidth=1;fillColor=none;align=left;verticalAlign=middle;spacingTop=-1;spacingLeft=3;spacingRight=3;rotatable=0;labelPosition=right;points=[];portConstraint=eastwest;strokeColor=inherit;" vertex="1" parent="pbV-4tCyexszOfSKkTTi-9">
          <mxGeometry y="150" width="160" height="8" as="geometry" />
        </mxCell>
        <mxCell id="pbV-4tCyexszOfSKkTTi-12" value="&lt;div&gt;+ &amp;lt;create&amp;gt; Empleado (String,String,int,LocalDate,boolean)&lt;br&gt;&lt;/div&gt;&lt;div&gt;+ generarRecibo(): Recibo&lt;/div&gt;&lt;div&gt;+ getAntiguedad(): int&lt;br&gt;&lt;/div&gt;" style="text;strokeColor=none;fillColor=none;align=left;verticalAlign=top;spacingLeft=4;spacingRight=4;overflow=hidden;rotatable=0;points=[[0,0.5],[1,0.5]];portConstraint=eastwest;whiteSpace=wrap;html=1;" vertex="1" parent="pbV-4tCyexszOfSKkTTi-9">
          <mxGeometry y="158" width="160" height="72" as="geometry" />
        </mxCell>
        <mxCell id="pbV-4tCyexszOfSKkTTi-13" value="&amp;lt;abstract&amp;gt; Contrato" style="swimlane;fontStyle=1;align=center;verticalAlign=top;childLayout=stackLayout;horizontal=1;startSize=26;horizontalStack=0;resizeParent=1;resizeParentMax=0;resizeLast=0;collapsible=1;marginBottom=0;whiteSpace=wrap;html=1;" vertex="1" parent="1">
          <mxGeometry x="460" y="400" width="160" height="120" as="geometry">
            <mxRectangle x="190" y="130" width="110" height="30" as="alternateBounds" />
          </mxGeometry>
        </mxCell>
        <mxCell id="pbV-4tCyexszOfSKkTTi-14" value="&lt;div&gt;+ fechaInicio : LocalDate&lt;/div&gt;&lt;div&gt;+ propietario : Empleado&lt;br&gt;&lt;/div&gt;" style="text;strokeColor=none;fillColor=none;align=left;verticalAlign=top;spacingLeft=4;spacingRight=4;overflow=hidden;rotatable=0;points=[[0,0.5],[1,0.5]];portConstraint=eastwest;whiteSpace=wrap;html=1;" vertex="1" parent="pbV-4tCyexszOfSKkTTi-13">
          <mxGeometry y="26" width="160" height="34" as="geometry" />
        </mxCell>
        <mxCell id="pbV-4tCyexszOfSKkTTi-15" value="" style="line;strokeWidth=1;fillColor=none;align=left;verticalAlign=middle;spacingTop=-1;spacingLeft=3;spacingRight=3;rotatable=0;labelPosition=right;points=[];portConstraint=eastwest;strokeColor=inherit;" vertex="1" parent="pbV-4tCyexszOfSKkTTi-13">
          <mxGeometry y="60" width="160" height="8" as="geometry" />
        </mxCell>
        <mxCell id="pbV-4tCyexszOfSKkTTi-48" value="&lt;div&gt;+ &amp;lt;create&amp;gt; ContratoPorPlanta(LocalDate, Empleado)&lt;/div&gt;" style="text;strokeColor=none;fillColor=none;align=left;verticalAlign=top;spacingLeft=4;spacingRight=4;overflow=hidden;rotatable=0;points=[[0,0.5],[1,0.5]];portConstraint=eastwest;whiteSpace=wrap;html=1;" vertex="1" parent="pbV-4tCyexszOfSKkTTi-13">
          <mxGeometry y="68" width="160" height="52" as="geometry" />
        </mxCell>
        <mxCell id="pbV-4tCyexszOfSKkTTi-17" value="ContratoPorHora" style="swimlane;fontStyle=1;align=center;verticalAlign=top;childLayout=stackLayout;horizontal=1;startSize=26;horizontalStack=0;resizeParent=1;resizeParentMax=0;resizeLast=0;collapsible=1;marginBottom=0;whiteSpace=wrap;html=1;" vertex="1" parent="1">
          <mxGeometry x="320" y="610" width="160" height="160" as="geometry">
            <mxRectangle x="190" y="130" width="110" height="30" as="alternateBounds" />
          </mxGeometry>
        </mxCell>
        <mxCell id="pbV-4tCyexszOfSKkTTi-18" value="&lt;div&gt;+ valorHora : double&lt;/div&gt;&lt;div&gt;+ cantHoras : int&lt;/div&gt;&lt;div&gt;+ fechaFin : LocalDate&lt;/div&gt;" style="text;strokeColor=none;fillColor=none;align=left;verticalAlign=top;spacingLeft=4;spacingRight=4;overflow=hidden;rotatable=0;points=[[0,0.5],[1,0.5]];portConstraint=eastwest;whiteSpace=wrap;html=1;" vertex="1" parent="pbV-4tCyexszOfSKkTTi-17">
          <mxGeometry y="26" width="160" height="54" as="geometry" />
        </mxCell>
        <mxCell id="pbV-4tCyexszOfSKkTTi-19" value="" style="line;strokeWidth=1;fillColor=none;align=left;verticalAlign=middle;spacingTop=-1;spacingLeft=3;spacingRight=3;rotatable=0;labelPosition=right;points=[];portConstraint=eastwest;strokeColor=inherit;" vertex="1" parent="pbV-4tCyexszOfSKkTTi-17">
          <mxGeometry y="80" width="160" height="8" as="geometry" />
        </mxCell>
        <mxCell id="pbV-4tCyexszOfSKkTTi-20" value="&lt;div&gt;+ &amp;lt;create&amp;gt; ContratoPorHora(double, int, LocalDate)&lt;/div&gt;&lt;div&gt;+ getTotal(): double&lt;/div&gt;" style="text;strokeColor=none;fillColor=none;align=left;verticalAlign=top;spacingLeft=4;spacingRight=4;overflow=hidden;rotatable=0;points=[[0,0.5],[1,0.5]];portConstraint=eastwest;whiteSpace=wrap;html=1;" vertex="1" parent="pbV-4tCyexszOfSKkTTi-17">
          <mxGeometry y="88" width="160" height="72" as="geometry" />
        </mxCell>
        <mxCell id="pbV-4tCyexszOfSKkTTi-21" value="ContratoDePlanta" style="swimlane;fontStyle=1;align=center;verticalAlign=top;childLayout=stackLayout;horizontal=1;startSize=26;horizontalStack=0;resizeParent=1;resizeParentMax=0;resizeLast=0;collapsible=1;marginBottom=0;whiteSpace=wrap;html=1;" vertex="1" parent="1">
          <mxGeometry x="640" y="610" width="160" height="160" as="geometry">
            <mxRectangle x="190" y="130" width="110" height="30" as="alternateBounds" />
          </mxGeometry>
        </mxCell>
        <mxCell id="pbV-4tCyexszOfSKkTTi-22" value="&lt;div&gt;+ sueldoMensual : double&lt;/div&gt;&lt;div&gt;+ montoConyuge : double&lt;/div&gt;&lt;div&gt;+ montoHijo : double&lt;/div&gt;" style="text;strokeColor=none;fillColor=none;align=left;verticalAlign=top;spacingLeft=4;spacingRight=4;overflow=hidden;rotatable=0;points=[[0,0.5],[1,0.5]];portConstraint=eastwest;whiteSpace=wrap;html=1;" vertex="1" parent="pbV-4tCyexszOfSKkTTi-21">
          <mxGeometry y="26" width="160" height="54" as="geometry" />
        </mxCell>
        <mxCell id="pbV-4tCyexszOfSKkTTi-23" value="" style="line;strokeWidth=1;fillColor=none;align=left;verticalAlign=middle;spacingTop=-1;spacingLeft=3;spacingRight=3;rotatable=0;labelPosition=right;points=[];portConstraint=eastwest;strokeColor=inherit;" vertex="1" parent="pbV-4tCyexszOfSKkTTi-21">
          <mxGeometry y="80" width="160" height="8" as="geometry" />
        </mxCell>
        <mxCell id="pbV-4tCyexszOfSKkTTi-24" value="&lt;div&gt;+ &amp;lt;create&amp;gt; ContratoPorPlanta(double, double, double)&lt;/div&gt;&lt;div&gt;+ getTotal(): double&lt;/div&gt;" style="text;strokeColor=none;fillColor=none;align=left;verticalAlign=top;spacingLeft=4;spacingRight=4;overflow=hidden;rotatable=0;points=[[0,0.5],[1,0.5]];portConstraint=eastwest;whiteSpace=wrap;html=1;" vertex="1" parent="pbV-4tCyexszOfSKkTTi-21">
          <mxGeometry y="88" width="160" height="72" as="geometry" />
        </mxCell>
        <mxCell id="pbV-4tCyexszOfSKkTTi-25" value="Recibo" style="swimlane;fontStyle=1;align=center;verticalAlign=top;childLayout=stackLayout;horizontal=1;startSize=26;horizontalStack=0;resizeParent=1;resizeParentMax=0;resizeLast=0;collapsible=1;marginBottom=0;whiteSpace=wrap;html=1;" vertex="1" parent="1">
          <mxGeometry x="130" y="670" width="160" height="160" as="geometry">
            <mxRectangle x="130" y="670" width="110" height="30" as="alternateBounds" />
          </mxGeometry>
        </mxCell>
        <mxCell id="pbV-4tCyexszOfSKkTTi-26" value="&lt;div&gt;+ empleado : Empleado&lt;/div&gt;&lt;div&gt;+ fechaGenerado : LocalDate&lt;/div&gt;&lt;div&gt;+ montoTotal : double&lt;/div&gt;" style="text;strokeColor=none;fillColor=none;align=left;verticalAlign=top;spacingLeft=4;spacingRight=4;overflow=hidden;rotatable=0;points=[[0,0.5],[1,0.5]];portConstraint=eastwest;whiteSpace=wrap;html=1;" vertex="1" parent="pbV-4tCyexszOfSKkTTi-25">
          <mxGeometry y="26" width="160" height="64" as="geometry" />
        </mxCell>
        <mxCell id="pbV-4tCyexszOfSKkTTi-27" value="" style="line;strokeWidth=1;fillColor=none;align=left;verticalAlign=middle;spacingTop=-1;spacingLeft=3;spacingRight=3;rotatable=0;labelPosition=right;points=[];portConstraint=eastwest;strokeColor=inherit;" vertex="1" parent="pbV-4tCyexszOfSKkTTi-25">
          <mxGeometry y="90" width="160" height="8" as="geometry" />
        </mxCell>
        <mxCell id="pbV-4tCyexszOfSKkTTi-47" value="&lt;div&gt;+ &amp;lt;create&amp;gt; Recibo(Empleado, LocalDate, Double)&lt;br&gt;&lt;/div&gt;" style="text;strokeColor=none;fillColor=none;align=left;verticalAlign=top;spacingLeft=4;spacingRight=4;overflow=hidden;rotatable=0;points=[[0,0.5],[1,0.5]];portConstraint=eastwest;whiteSpace=wrap;html=1;" vertex="1" parent="pbV-4tCyexszOfSKkTTi-25">
          <mxGeometry y="98" width="160" height="62" as="geometry" />
        </mxCell>
        <mxCell id="pbV-4tCyexszOfSKkTTi-39" value="" style="endArrow=block;endSize=16;endFill=0;html=1;rounded=0;exitX=0.5;exitY=1;exitDx=0;exitDy=0;" edge="1" parent="1" source="pbV-4tCyexszOfSKkTTi-13">
          <mxGeometry x="0.0024" width="160" relative="1" as="geometry">
            <mxPoint x="210" y="560" as="sourcePoint" />
            <mxPoint x="660" y="600" as="targetPoint" />
            <mxPoint as="offset" />
          </mxGeometry>
        </mxCell>
        <mxCell id="pbV-4tCyexszOfSKkTTi-40" value="" style="endArrow=block;endSize=16;endFill=0;html=1;rounded=0;exitX=0.448;exitY=1.055;exitDx=0;exitDy=0;exitPerimeter=0;" edge="1" parent="1" source="pbV-4tCyexszOfSKkTTi-48">
          <mxGeometry x="0.0024" width="160" relative="1" as="geometry">
            <mxPoint x="475" y="479" as="sourcePoint" />
            <mxPoint x="420" y="600" as="targetPoint" />
            <mxPoint as="offset" />
          </mxGeometry>
        </mxCell>
        <mxCell id="pbV-4tCyexszOfSKkTTi-41" value="" style="endArrow=block;endFill=1;html=1;edgeStyle=orthogonalEdgeStyle;align=left;verticalAlign=top;rounded=0;" edge="1" parent="1">
          <mxGeometry x="-1" relative="1" as="geometry">
            <mxPoint x="290" y="440" as="sourcePoint" />
            <mxPoint x="450" y="440" as="targetPoint" />
          </mxGeometry>
        </mxCell>
        <mxCell id="pbV-4tCyexszOfSKkTTi-42" value="0..* Contrato" style="edgeLabel;resizable=0;html=1;align=left;verticalAlign=bottom;" connectable="0" vertex="1" parent="pbV-4tCyexszOfSKkTTi-41">
          <mxGeometry x="-1" relative="1" as="geometry">
            <mxPoint x="10" y="3" as="offset" />
          </mxGeometry>
        </mxCell>
        <mxCell id="pbV-4tCyexszOfSKkTTi-49" value="" style="endArrow=open;endSize=12;dashed=1;html=1;rounded=0;exitX=0.487;exitY=1.02;exitDx=0;exitDy=0;exitPerimeter=0;entryX=0.5;entryY=0;entryDx=0;entryDy=0;" edge="1" parent="1" source="pbV-4tCyexszOfSKkTTi-12" target="pbV-4tCyexszOfSKkTTi-25">
          <mxGeometry width="160" relative="1" as="geometry">
            <mxPoint x="160" y="609.43" as="sourcePoint" />
            <mxPoint x="320" y="609.43" as="targetPoint" />
          </mxGeometry>
        </mxCell>
      </root>
    </mxGraphModel>
  </diagram>
</mxfile>
